<?xml version="1.0" standalone="no"?>
<!DOCTYPE svg PUBLIC "-//W3C//DTD SVG 20010904//EN"
 "http://www.w3.org/TR/2001/REC-SVG-20010904/DTD/svg10.dtd">
<svg version="1.0" xmlns="http://www.w3.org/2000/svg"
 width="16.000000pt" height="16.000000pt" viewBox="0 0 16.000000 16.000000"
 preserveAspectRatio="xMidYMid meet">
<metadata>
Created by potrace 1.11, written by Peter Selinger 2001-2013
</metadata>
<g transform="translate(0.000000,16.000000) scale(0.006154,-0.006154)"
fill="#000000" stroke="none">
<path d="M24 2562 c2 -40 32 -80 71 -96 11 -4 292 -8 625 -8 l605 -1 23 -28
c16 -20 19 -29 10 -30 -7 0 -278 -1 -603 -1 -394 -1 -593 -5 -600 -12 -18 -16
-6 -53 31 -93 19 -20 34 -33 34 -29 0 5 6 4 13 -1 7 -6 225 -9 577 -8 311 0
572 -2 580 -6 9 -4 17 -22 18 -39 l2 -31 -90 2 c-50 1 -92 0 -94 -2 -3 -2 -39
-2 -81 1 -42 3 -78 3 -80 -1 -2 -3 -29 -2 -60 1 -31 3 -58 3 -61 -1 -2 -4 -20
-3 -39 1 -19 4 -37 5 -39 1 -2 -3 -48 -4 -101 -1 -53 3 -98 3 -100 0 -2 -3
-47 -3 -100 0 -53 3 -99 2 -101 -2 -2 -3 -17 -3 -33 2 -15 4 -34 4 -41 0 -7
-4 -21 -5 -31 -3 -10 3 -19 1 -19 -5 0 -21 12 -42 25 -42 6 0 20 -9 30 -20 10
-11 28 -20 40 -20 11 0 27 -6 33 -12 11 -11 213 -20 402 -18 8 0 130 1 270 3
140 1 261 -2 268 -7 6 -4 12 -16 12 -25 0 -15 -35 -16 -381 -16 -209 0 -384
-2 -388 -5 -4 -3 -10 -15 -14 -28 -5 -23 0 -31 48 -71 13 -11 91 -13 395 -14
342 0 378 -1 377 -16 -1 -14 -36 -16 -356 -16 -367 1 -381 -1 -381 -39 0 -19
31 -48 57 -54 10 -3 84 -5 165 -6 82 0 148 -4 148 -8 0 -4 6 -5 13 -3 27 10
86 12 80 3 -3 -6 3 -7 16 -3 12 4 21 2 21 -4 0 -6 -6 -11 -12 -12 -7 0 -24 -2
-38 -5 -14 -2 -81 -4 -150 -5 -114 -1 -150 -8 -150 -29 0 -17 37 -46 60 -47
14 -1 41 -5 60 -9 19 -4 114 -8 210 -9 96 -1 182 -5 190 -7 8 -3 22 -8 30 -11
22 -8 80 -18 118 -19 23 0 32 -5 32 -17 0 -10 -9 -17 -20 -18 -11 -1 -20 2
-20 7 0 5 -15 8 -32 8 -31 -1 -75 7 -108 19 -23 9 -271 10 -276 1 -3 -4 -66
-7 -140 -6 -81 0 -139 -3 -142 -9 -4 -5 -14 -11 -22 -11 -8 -1 -28 -4 -45 -7
-16 -3 -51 -9 -77 -12 -27 -3 -48 -9 -48 -13 0 -5 -9 -6 -20 -3 -11 3 -20 1
-20 -5 0 -6 -21 -14 -47 -17 -63 -8 -163 -38 -163 -48 0 -5 -4 -5 -10 -2 -11
7 -60 -42 -57 -57 1 -5 -8 -14 -21 -19 -19 -7 -29 -3 -56 24 -43 43 -52 81
-29 116 10 14 18 29 18 33 0 10 45 41 45 32 0 -4 10 8 23 27 12 19 38 42 57
53 55 30 94 119 95 221 1 77 -7 105 -40 141 -5 7 -19 24 -29 38 -10 14 -23 26
-29 26 -5 0 -23 14 -39 30 -16 17 -40 35 -54 40 -37 14 -102 9 -109 -8 -3 -8
-12 -11 -20 -8 -8 3 -15 1 -15 -5 0 -6 -14 -22 -30 -36 -17 -13 -28 -29 -24
-34 3 -5 0 -9 -5 -9 -6 0 -11 -15 -11 -33 0 -18 -7 -42 -15 -54 -13 -18 -13
-22 0 -33 8 -7 15 -19 15 -26 0 -8 4 -14 9 -14 5 0 8 -11 7 -25 -2 -13 4 -32
14 -42 9 -10 15 -24 12 -31 -2 -6 0 -12 5 -12 5 0 8 -17 7 -37 -1 -21 -2 -38
-4 -38 -1 0 -4 -12 -6 -26 -3 -19 1 -29 12 -33 23 -9 36 6 36 38 0 22 26 59
29 42 5 -23 4 -32 -3 -42 -5 -7 -2 -16 6 -23 11 -9 17 -8 30 4 9 9 16 13 16 8
1 -24 30 36 30 63 0 17 7 37 15 44 18 15 12 56 -15 105 -11 19 -17 35 -13 35
3 0 -1 8 -9 18 -33 38 -45 117 -20 127 19 7 52 -3 52 -17 0 -5 6 -8 14 -5 8 3
24 -5 36 -18 12 -13 32 -25 44 -27 27 -4 32 -44 5 -44 -11 0 -19 5 -19 10 0 5
-3 6 -7 3 -9 -10 -13 -57 -5 -57 12 0 31 -59 21 -62 -5 -2 -10 -16 -11 -33 -1
-16 -4 -34 -7 -40 -3 -5 -6 -12 -7 -15 -4 -19 -31 -69 -36 -65 -2 3 -23 -13
-46 -35 -22 -22 -44 -40 -49 -40 -5 0 -20 -8 -33 -17 -14 -10 -30 -18 -37 -19
-20 -3 -44 -32 -46 -54 -1 -11 -5 -20 -9 -20 -5 0 -6 -11 -4 -25 3 -13 1 -27
-4 -30 -5 -3 -6 -13 -3 -22 4 -10 2 -14 -4 -10 -15 10 1 -77 20 -107 9 -14 17
-31 17 -39 0 -16 46 -42 81 -46 5 0 7 -5 4 -11 -4 -7 2 -7 19 0 16 6 27 6 31
0 4 -6 11 -5 19 2 11 10 6 18 -22 40 -19 16 -39 28 -43 28 -5 0 -9 6 -9 13 0
14 -42 54 -50 47 -3 -3 -5 16 -6 43 -1 39 2 47 17 47 12 0 17 -6 14 -19 -5
-25 49 -101 73 -102 9 -1 34 -2 54 -2 44 0 56 -26 26 -54 -18 -16 -52 -73 -59
-98 -1 -5 -4 -18 -7 -27 -2 -10 -7 -18 -11 -18 -4 0 -8 -17 -9 -37 -5 -102
-10 -136 -21 -142 -9 -6 -7 -14 7 -31 l19 -24 23 22 c13 12 31 24 40 27 9 3
23 17 30 30 14 26 34 33 45 15 3 -5 1 -10 -5 -10 -6 0 -9 -4 -6 -9 3 -5 -3
-20 -14 -32 -11 -13 -19 -21 -20 -17 0 4 -11 -3 -24 -15 -32 -30 -94 -67 -112
-67 -8 0 -14 -7 -14 -15 0 -8 -10 -20 -23 -26 -12 -6 -33 -24 -47 -39 -69 -75
-83 -122 -50 -158 10 -11 16 -22 13 -25 -3 -3 -1 -11 3 -18 4 -7 9 -22 10 -34
4 -34 9 -50 17 -56 5 -4 10 -18 10 -33 1 -14 6 -26 10 -26 5 0 6 -4 3 -9 -9
-14 15 -71 30 -71 11 0 13 -10 11 -35 -3 -19 0 -35 4 -35 5 0 9 -11 9 -24 0
-13 7 -29 15 -36 9 -7 13 -15 11 -17 -5 -5 31 -43 40 -43 3 0 17 -9 31 -20 14
-11 29 -17 34 -15 4 3 15 -10 25 -30 16 -34 18 -35 70 -35 46 0 65 8 70 30 0
3 4 17 8 33 5 18 4 33 -4 42 -7 8 -9 15 -4 15 4 0 -1 6 -11 14 -10 7 -34 13
-52 11 -18 -1 -33 1 -33 4 1 18 21 27 69 29 30 1 52 -1 48 -4 -4 -4 -2 -12 3
-19 5 -6 10 -26 12 -43 1 -18 6 -32 11 -32 5 0 5 -6 -1 -13 -14 -17 -23 -70
-14 -82 4 -6 19 -11 34 -11 24 -1 27 2 30 42 2 24 0 44 -3 44 -3 0 -4 11 -1
25 2 14 6 25 9 25 15 0 28 -29 26 -57 -3 -40 18 -49 46 -19 25 26 23 51 -5 90
-19 26 -21 27 -37 11 -16 -16 -63 -13 -53 4 3 4 -5 25 -18 46 -14 27 -29 40
-43 40 -25 1 -65 33 -57 46 3 5 0 9 -5 9 -6 0 -11 7 -11 16 0 18 -27 70 -51
96 -18 21 -24 88 -8 88 6 0 9 7 5 15 -3 8 6 26 21 41 33 33 40 83 12 85 -63 4
-75 1 -77 -21 -4 -43 -6 -49 -14 -44 -4 3 -8 -1 -8 -9 0 -8 -7 -18 -16 -21 -9
-3 -14 -12 -11 -20 12 -31 -70 -65 -88 -36 -4 6 -10 8 -15 5 -5 -3 -8 3 -7 14
1 15 8 19 29 19 42 -1 81 22 67 39 -8 9 -8 13 0 13 6 0 11 13 11 29 0 25 5 31
30 36 17 4 30 11 30 16 0 6 5 7 10 4 6 -3 10 -2 10 2 0 5 12 14 28 21 80 35
135 76 132 98 -1 4 14 14 32 23 36 17 57 39 58 60 0 8 13 27 30 43 27 25 34
39 31 60 0 4 8 9 18 13 11 3 18 13 16 23 -1 9 15 36 37 60 21 23 37 46 34 51
-3 4 9 16 27 26 18 9 43 33 55 51 15 22 33 37 53 41 16 3 34 13 39 23 5 10 19
20 30 23 34 9 24 -27 -19 -66 -22 -19 -37 -38 -33 -41 3 -3 0 -6 -7 -6 -7 0
-9 -5 -6 -10 3 -5 -1 -10 -9 -10 -17 0 -25 -11 -31 -41 -7 -34 16 -46 89 -48
76 -1 116 -9 116 -21 0 -10 52 -29 88 -32 6 -1 12 -6 12 -11 0 -5 7 -6 15 -3
9 3 18 -1 21 -8 3 -8 13 -12 22 -10 10 3 36 -15 67 -46 27 -28 55 -48 62 -45
7 2 13 0 13 -5 0 -6 5 -10 11 -10 7 0 21 -10 33 -23 18 -19 30 -22 91 -21 43
1 82 8 100 18 17 9 35 16 42 16 6 0 15 9 18 20 3 11 12 20 20 20 17 0 29 32
14 40 -6 4 -37 6 -70 5 -32 -1 -59 2 -59 6 0 5 -7 9 -15 9 -8 0 -15 7 -15 15
0 7 -7 18 -15 22 -13 8 -45 78 -62 138 -4 11 -11 23 -17 28 -8 5 -6 10 4 17 9
6 10 10 3 10 -11 0 -7 25 12 73 12 28 34 2 31 -36 -2 -18 1 -37 6 -43 5 -7 7
-23 4 -37 -3 -17 1 -27 10 -31 9 -3 13 -10 10 -15 -4 -5 5 -23 19 -39 13 -16
22 -32 19 -35 -3 -3 1 -16 10 -29 9 -12 16 -17 16 -10 0 10 4 10 20 0 16 -10
22 -9 40 12 26 29 36 68 22 82 -6 6 -8 17 -5 24 3 8 0 14 -6 14 -6 0 -11 9
-11 20 0 11 -6 20 -14 20 -23 0 -15 38 14 69 38 41 116 102 123 95 3 -3 12 -2
19 2 7 5 19 9 26 10 8 2 19 10 26 20 11 15 9 22 -20 51 -18 18 -36 33 -39 33
-10 0 -35 28 -35 38 0 23 73 -10 107 -48 59 -66 74 -80 91 -81 9 0 71 -1 138
-1 116 -1 150 4 139 22 -3 4 2 11 11 14 15 6 15 8 0 25 -9 9 -13 21 -9 24 3 4
1 7 -6 7 -6 0 -11 6 -9 14 3 12 -67 85 -122 127 -12 9 -23 23 -24 30 -2 8 -9
28 -16 44 -7 17 -14 51 -15 76 -1 26 -5 51 -9 57 -4 6 2 16 13 22 17 9 19 8
15 -5 -4 -8 -1 -15 6 -15 6 0 11 -12 10 -27 -3 -46 0 -64 9 -59 4 3 6 -5 4
-17 -3 -15 5 -31 27 -52 17 -17 35 -40 40 -52 5 -13 16 -23 25 -23 8 0 15 -4
15 -10 0 -5 7 -10 15 -10 8 0 20 -10 26 -22 7 -13 19 -28 27 -34 8 -6 15 -28
15 -49 2 -58 47 -96 101 -86 29 6 44 35 25 47 -5 3 -9 23 -9 44 0 30 -5 42
-21 50 -33 18 -58 43 -53 52 3 4 -3 11 -13 15 -19 7 -36 20 -56 41 -7 7 -27
28 -45 47 -19 19 -31 35 -27 35 4 0 3 6 -2 13 -15 18 -22 53 -13 67 8 13 60
-42 60 -64 0 -7 16 -27 35 -46 19 -19 35 -31 35 -27 0 4 6 2 14 -5 8 -7 13
-17 13 -22 -1 -6 14 -17 33 -27 19 -9 35 -21 35 -27 0 -6 15 -24 33 -42 37
-35 43 -50 48 -129 3 -49 17 -76 35 -65 12 7 26 -71 18 -95 -7 -16 -6 -20 4
-15 9 5 9 4 0 -7 -19 -20 -16 -51 4 -47 11 2 18 14 20 33 1 17 4 41 6 55 2 14
1 30 -4 35 -8 11 -7 34 3 50 9 14 2 63 -17 114 -13 36 -14 46 -3 52 10 6 10 9
1 9 -7 0 -10 6 -7 13 2 7 -6 25 -20 40 -13 14 -21 28 -18 31 6 7 -45 56 -59
56 -5 0 -28 19 -50 43 -23 23 -46 42 -51 42 -5 0 -12 5 -16 11 -4 6 -22 17
-39 25 -18 8 -33 17 -33 21 0 12 -43 48 -58 48 -22 0 -77 51 -74 68 2 9 -1 11
-9 6 -8 -4 -10 -3 -5 4 11 18 40 14 59 -8 9 -11 17 -24 17 -29 0 -4 26 -20 58
-34 32 -15 67 -36 77 -47 28 -30 73 -27 86 8 22 56 21 72 -6 82 -14 5 -25 14
-25 19 0 12 -58 5 -74 -8 -9 -8 -18 -6 -32 4 -18 15 -18 16 9 40 34 30 57 32
80 5 9 -11 24 -20 32 -20 8 0 15 -3 15 -7 0 -5 13 -8 30 -7 32 1 63 21 54 35
-3 5 -1 9 4 9 11 0 20 30 15 48 -3 6 -16 12 -29 12 -13 0 -24 5 -24 12 0 6 -3
8 -7 5 -10 -11 -32 13 -26 29 7 19 52 18 59 -1 4 -8 10 -12 15 -9 5 3 9 0 9
-5 0 -12 50 -15 51 -3 0 4 2 17 3 30 2 13 -3 22 -11 22 -7 0 -13 5 -13 12 0 6
-3 8 -6 5 -4 -4 -15 10 -25 31 -11 20 -34 46 -52 58 -22 15 -37 37 -50 73 -18
53 -54 104 -67 96 -12 -8 -52 47 -52 72 0 12 -3 23 -7 23 -4 0 -7 9 -8 21 -3
41 -30 48 -170 49 -73 0 -134 -4 -138 -10 -3 -5 -12 -7 -20 -3 -8 3 -15 0 -15
-7 0 -7 -6 -10 -12 -8 -7 3 -21 -3 -31 -12 -25 -25 -3 -40 53 -36 25 1 57 -3
71 -10 15 -7 29 -10 32 -7 4 3 9 -2 13 -11 3 -9 17 -16 29 -16 13 0 35 -4 49
-10 14 -5 26 -6 26 -1 0 11 31 19 48 13 10 -3 9 -10 -4 -30 -25 -38 -47 -53
-56 -39 -4 7 -11 12 -15 13 -4 0 -33 12 -63 26 -75 35 -115 47 -129 39 -6 -4
-28 -6 -47 -4 -20 1 -46 -3 -58 -9 -24 -13 -76 -64 -76 -76 0 -4 -15 -25 -34
-47 -19 -22 -33 -42 -31 -46 7 -10 48 -4 75 10 26 15 61 20 154 24 44 2 62 7
72 22 8 10 14 16 14 12 0 -4 11 -2 24 3 15 5 27 5 34 -2 13 -13 4 -38 -13 -38
-7 0 -19 -7 -26 -16 -9 -11 -23 -14 -45 -11 -17 3 -37 0 -43 -6 -6 -6 -21 -12
-33 -14 -48 -7 -64 -10 -80 -17 -10 -5 -23 -6 -30 -3 -7 2 -26 -7 -41 -19 -16
-13 -34 -24 -41 -24 -16 0 -40 -31 -44 -55 -10 -68 -9 -95 4 -106 18 -15 57
17 51 42 -3 11 12 24 54 44 33 15 59 31 59 36 0 4 9 6 20 4 11 -2 26 3 34 11
8 8 22 14 31 14 9 0 32 8 53 19 28 14 40 16 48 7 8 -9 7 -15 -3 -24 -7 -7 -13
-10 -13 -7 0 4 -14 -5 -31 -19 -17 -14 -35 -24 -39 -21 -5 3 -11 1 -15 -5 -3
-5 -17 -10 -29 -10 -13 0 -34 -8 -47 -18 -13 -10 -36 -23 -51 -29 -31 -14 -55
-46 -73 -100 -11 -30 -10 -39 1 -51 8 -7 14 -19 14 -26 0 -15 42 -56 57 -56 9
0 23 21 27 40 1 3 4 10 7 15 4 6 5 20 4 33 -1 12 2 22 7 22 4 0 8 6 8 14 0 8
10 16 23 20 12 3 35 17 51 31 16 14 33 26 38 26 4 1 13 3 18 4 6 1 15 3 21 4
5 0 8 5 5 9 -9 16 10 31 32 25 21 -5 32 -33 12 -33 -5 0 -24 -15 -42 -32 -18
-18 -36 -32 -40 -30 -5 1 -8 -3 -8 -9 0 -5 -4 -8 -9 -5 -11 7 -63 -52 -56 -64
3 -4 -2 -10 -10 -14 -8 -3 -15 -11 -15 -19 0 -7 -6 -19 -12 -25 -13 -13 -20
-83 -9 -92 3 -3 18 -23 34 -46 31 -46 37 -113 11 -138 -23 -24 -44 -20 -44 9
0 14 4 25 9 25 11 0 10 10 -13 82 -10 32 -23 55 -27 52 -5 -3 -9 0 -9 5 0 6
-5 11 -11 11 -13 0 -48 41 -49 56 0 7 -14 25 -31 42 -17 16 -32 38 -34 48 -2
11 -4 21 -6 24 -1 3 -3 10 -4 15 0 6 -9 25 -18 43 -10 17 -15 32 -11 32 4 0 1
6 -5 13 -6 9 -9 37 -6 73 3 32 6 78 7 102 2 23 5 42 9 42 7 0 19 33 23 62 3
22 36 59 46 53 4 -3 15 10 24 28 9 17 20 39 25 47 30 56 30 56 6 104 -13 26
-24 50 -24 54 -1 4 -381 8 -845 10 l-843 2 1 -38z m2255 -273 c2 -7 10 -20 18
-27 19 -20 16 -42 -7 -42 -11 0 -20 5 -20 10 0 7 -6 8 -17 2 -9 -6 -29 -6 -45
-2 -15 5 -28 6 -28 3 0 -3 -7 0 -15 7 -18 15 -20 31 -2 29 35 -4 55 3 60 21 6
23 48 23 56 -1z m121 -119 c11 -7 11 -10 2 -10 -7 0 -11 -4 -8 -9 3 -4 -10
-17 -29 -27 -33 -18 -36 -18 -52 -1 -17 17 -17 19 2 33 11 8 28 13 38 10 9 -2
17 0 17 5 0 12 11 11 30 -1z m-182 -55 c13 2 27 -5 33 -16 6 -13 6 -19 0 -19
-6 0 -21 -11 -35 -25 -30 -29 -68 -34 -65 -7 3 30 -1 56 -7 49 -8 -7 -34 17
-34 31 0 18 24 19 55 2 16 -9 40 -16 53 -15z m-208 -212 c0 -3 -8 -13 -18 -22
-9 -9 -23 -27 -29 -41 -13 -26 -13 -96 -1 -116 4 -6 6 -20 3 -32 -2 -14 3 -22
17 -25 11 -3 17 -10 13 -16 -3 -6 -2 -11 3 -11 5 0 10 -12 10 -26 0 -14 4 -30
10 -36 15 -15 -6 -57 -28 -55 -12 1 -16 9 -14 34 1 18 -3 33 -9 33 -6 0 -8 3
-5 6 10 9 -33 125 -47 131 -19 7 -29 77 -15 102 6 12 17 21 25 21 8 0 15 5 15
11 0 5 5 7 12 3 6 -4 8 -3 4 4 -3 6 -1 22 5 36 10 20 15 23 30 15 11 -5 19
-12 19 -16z m-750 -147 c0 5 47 9 104 9 57 0 102 -3 99 -7 -5 -10 21 -10 31
-1 11 11 36 12 36 2 0 -6 4 -8 9 -4 5 3 12 1 15 -3 8 -14 -218 -11 -226 2 -6
8 -8 8 -8 0 0 -6 -20 -11 -45 -12 -34 0 -45 4 -45 15 0 13 3 13 15 3 8 -7 15
-9 15 -4z m-1097 -1279 c-3 -5 4 -21 15 -36 11 -15 33 -51 48 -80 44 -81 48
-88 72 -108 16 -13 19 -22 13 -33 -8 -12 -13 -12 -35 0 -14 7 -26 19 -26 27 0
7 -5 13 -11 13 -5 0 -8 4 -4 10 6 9 0 17 -47 70 -13 14 -21 33 -20 42 2 10 -1
18 -7 18 -5 0 -8 9 -6 20 2 11 0 20 -5 20 -4 0 -8 16 -8 34 0 28 3 33 13 23 7
-7 11 -16 8 -20z"/>
<path d="M2280 1361 c-14 -5 -35 -6 -48 -5 -12 2 -22 0 -22 -4 0 -4 -82 -7
-182 -7 -166 0 -228 -7 -228 -27 0 -3 -10 -4 -22 0 -13 3 -19 1 -15 -5 4 -6
-3 -10 -16 -10 -13 0 -35 -12 -50 -27 -14 -14 -31 -26 -36 -26 -16 0 -9 -52 9
-72 8 -9 28 -21 43 -27 33 -13 56 -4 84 32 10 13 24 22 31 19 6 -2 12 1 12 6
0 6 8 9 18 8 9 -2 22 3 27 10 11 15 64 22 83 10 7 -4 12 -2 12 4 0 7 7 7 23
-2 12 -7 28 -11 36 -9 16 3 71 -18 71 -28 0 -4 9 -7 20 -7 11 0 20 4 20 8 0 4
7 5 15 2 8 -4 17 1 21 9 8 21 102 40 126 26 6 -4 20 -3 29 2 11 6 20 5 24 -1
3 -5 15 -10 26 -10 10 0 19 -4 19 -10 0 -5 7 -10 16 -10 9 0 14 -6 11 -12 -4
-12 -14 -12 -64 -6 -7 1 -13 4 -13 8 0 11 -104 9 -118 -2 -7 -6 -15 -8 -19 -5
-3 4 -12 2 -20 -4 -7 -6 -13 -8 -13 -3 0 5 -7 -2 -17 -15 -14 -20 -17 -56 -18
-230 -1 -113 -3 -207 -5 -208 -8 -8 -4 -30 8 -45 16 -19 48 -24 54 -9 2 5 14
4 28 -2 14 -5 35 -9 48 -8 12 1 22 -3 22 -9 0 -6 8 -10 18 -8 9 2 22 -3 28
-10 16 -22 72 -23 87 -2 13 19 16 517 3 539 -4 6 -1 14 7 17 22 8 16 87 -9
121 -18 23 -29 28 -70 29 -71 2 -76 3 -69 14 3 6 5 10 3 9 -2 0 -14 -4 -28 -8z"/>
<path d="M2536 1235 c-3 -8 -1 -15 5 -15 6 0 8 -4 5 -8 -3 -5 -7 -21 -10 -36
-5 -26 -4 -27 16 -14 24 16 31 44 17 70 -12 22 -25 23 -33 3z"/>
<path d="M1966 1202 c-3 -5 -21 -8 -41 -7 -19 2 -35 -1 -35 -6 0 -5 -13 -9
-29 -9 -16 0 -33 -6 -38 -12 -5 -8 -9 -100 -8 -211 1 -109 -2 -200 -7 -203 -4
-3 -8 -10 -8 -15 0 -6 5 -7 10 -4 7 4 9 -3 6 -22 -2 -15 -5 -28 -6 -28 -1 0
-4 -12 -6 -26 -5 -30 33 -57 63 -44 10 5 20 9 23 10 26 9 46 20 52 29 4 6 40
12 79 13 39 1 76 6 81 11 6 6 10 108 10 238 0 286 1 264 -20 264 -10 0 -22 3
-26 7 -4 4 -21 8 -39 8 -18 0 -37 4 -44 8 -6 4 -14 3 -17 -1z"/>
<path d="M2513 1128 c-7 -7 -10 -26 -9 -41 2 -15 -1 -27 -6 -27 -5 0 -4 -8 1
-19 6 -10 7 -22 3 -25 -9 -10 -9 -40 0 -47 4 -3 4 -18 -1 -35 -4 -16 -5 -38
-1 -49 4 -11 5 -24 2 -30 -11 -18 -17 -120 -11 -185 6 -61 -17 -79 -97 -77
-32 1 -65 6 -71 10 -7 5 -13 5 -13 2 0 -4 -20 5 -45 19 -25 15 -45 24 -45 21
0 -3 -8 -1 -19 4 -14 8 -24 6 -42 -10 -24 -21 -80 -20 -87 0 -6 19 -47 12 -60
-9 -7 -12 -17 -18 -22 -15 -5 3 -26 -1 -46 -10 -20 -8 -40 -13 -44 -10 -5 3
-10 1 -12 -3 -5 -13 -58 -24 -58 -12 0 5 -6 10 -14 10 -28 0 -48 50 -47 118 0
35 4 70 9 76 9 14 8 148 -2 164 -4 7 -4 12 1 12 4 0 8 34 8 75 0 71 -1 75 -22
75 -13 0 -26 0 -30 0 -5 0 -9 -4 -9 -10 -1 -5 -3 -13 -4 -17 -1 -5 -1 -12 0
-18 6 -26 4 -265 -2 -265 -4 0 0 -12 7 -27 8 -15 11 -30 6 -33 -14 -9 -20 -50
-8 -50 9 0 9 -2 0 -8 -8 -5 -9 -13 -3 -22 13 -20 13 -33 0 -25 -5 3 -7 0 -4
-9 3 -8 1 -30 -4 -48 -7 -26 -6 -39 4 -53 8 -10 14 -16 14 -12 0 4 11 2 24 -3
13 -5 27 -6 31 -2 4 4 46 8 93 9 48 2 111 5 141 8 29 3 59 1 65 -3 6 -5 27 -7
46 -4 40 6 222 6 320 0 36 -2 70 -2 75 -1 7 2 10 59 10 153 0 83 3 150 8 150
4 0 3 8 -2 19 -6 10 -8 21 -4 24 12 12 15 88 4 101 -7 9 -8 22 -3 37 23 65 4
162 -25 127z"/>
<path d="M915 1049 c-4 -5 -17 -7 -30 -5 -14 3 -27 0 -30 -5 -4 -5 -17 -9 -31
-9 -24 0 -94 -59 -94 -79 0 -5 -9 -16 -20 -24 -11 -8 -18 -16 -15 -19 5 -5
-12 -21 -91 -90 -10 -9 -35 -34 -54 -55 -20 -22 -43 -44 -52 -49 -9 -5 -19
-21 -22 -36 -6 -34 22 -60 69 -63 39 -3 95 -23 95 -35 0 -12 59 -24 95 -20 56
6 220 4 244 -3 12 -3 28 -10 35 -15 19 -16 63 -19 80 -7 21 16 11 44 -20 55
-24 9 -24 40 -1 36 58 -12 63 -16 59 -52 -5 -42 14 -70 35 -52 8 6 13 22 10
35 -2 12 0 24 4 25 5 2 2 14 -6 28 -8 14 -18 34 -24 46 -8 17 -17 20 -55 18
-25 -1 -54 -5 -66 -9 -12 -4 -20 -2 -20 5 0 7 -7 10 -15 7 -8 -4 -17 -1 -21 4
-3 6 -15 9 -25 6 -10 -3 -22 -1 -25 4 -9 15 -101 59 -108 52 -3 -4 -6 -2 -6 4
0 5 -19 9 -42 8 -58 -4 -56 -3 -60 -22 -3 -18 -48 -26 -48 -9 0 20 17 37 38
39 11 0 26 11 33 23 6 12 17 20 24 18 7 -3 15 2 18 10 4 9 12 16 19 16 7 0 32
21 56 45 24 25 50 45 58 45 9 0 12 5 9 10 -3 6 1 10 9 10 8 0 31 16 52 35 20
19 40 35 45 35 8 0 8 39 -1 41 -33 7 -101 6 -105 -2z m-350 -349 c-3 -5 -1
-10 4 -10 20 0 11 -16 -9 -17 -19 -2 -27 16 -13 30 10 11 25 8 18 -3z"/>
<path d="M1630 844 c-30 -6 -61 -8 -68 -4 -25 12 -59 -1 -72 -28 -16 -33 -18
-37 -28 -89 -5 -24 -14 -48 -19 -55 -5 -7 -9 -22 -8 -33 0 -11 -10 -34 -22
-51 -32 -46 -37 -77 -18 -115 23 -44 35 -54 69 -56 16 -1 37 -5 45 -9 16 -8
42 -14 73 -17 9 -1 14 -6 11 -11 -4 -5 -1 -6 8 0 8 4 24 7 37 5 28 -3 29 16 1
38 l-21 17 24 -1 c35 -2 72 -30 65 -49 -4 -10 -1 -16 8 -16 8 0 15 7 15 15 0
8 4 15 9 15 5 0 4 15 -2 35 -6 19 -14 35 -19 35 -4 0 -8 6 -8 14 0 10 -9 13
-30 11 -16 -2 -30 0 -30 5 0 6 -7 10 -15 10 -21 0 -20 5 19 76 20 35 33 73 32
87 -2 16 3 28 12 32 11 4 12 8 2 20 -6 8 -9 19 -5 25 9 15 9 91 -1 99 -5 4
-34 2 -64 -5z m-47 -126 c2 -7 -3 -24 -12 -37 -17 -26 -22 -42 -26 -83 -1 -16
-4 -31 -5 -35 -1 -5 -2 -11 -1 -15 1 -8 -15 -12 -31 -9 -5 0 -8 -3 -8 -8 0 -9
-38 -7 -47 2 -2 3 3 12 12 20 8 9 15 20 15 26 0 6 5 11 10 11 6 0 8 12 6 27
-4 17 1 32 12 42 10 9 25 28 35 44 19 29 33 34 40 15z"/>
<path d="M854 529 c-2 -4 -30 -6 -62 -5 -31 2 -63 -1 -70 -7 -10 -8 -16 -7
-21 1 -11 18 -55 -10 -59 -38 -2 -13 -11 -34 -19 -47 -8 -13 -12 -23 -7 -23 4
0 0 -6 -9 -12 -24 -18 -29 -55 -9 -64 24 -10 36 -11 47 -3 6 3 25 6 43 5 17 0
32 2 32 6 0 10 59 -9 89 -29 14 -9 32 -18 40 -19 8 -2 17 -7 20 -12 6 -9 36
-22 48 -21 3 1 10 -6 15 -15 5 -9 16 -16 23 -16 8 0 15 -4 15 -9 0 -8 115 -67
133 -69 5 0 19 -12 32 -26 12 -13 26 -22 29 -19 3 4 6 1 6 -4 0 -12 18 -12 38
0 6 5 12 4 12 -1 0 -5 15 -12 33 -16 29 -5 55 -12 67 -16 3 -1 8 -2 13 -1 4 0
7 -3 7 -8 0 -8 59 -19 112 -21 10 -1 20 -6 23 -11 4 -5 11 -6 17 -3 6 4 13 2
17 -5 5 -7 60 -12 152 -15 153 -4 233 3 235 19 4 26 17 55 26 55 5 0 7 4 4 8
-3 5 7 15 22 24 31 18 92 30 92 18 0 -10 37 -20 45 -11 4 3 10 6 13 6 4 0 34
16 67 35 33 19 71 39 85 44 35 12 67 43 74 72 4 13 11 24 17 24 6 0 8 4 5 9
-3 5 1 14 9 21 8 7 15 21 15 31 0 11 5 19 11 19 5 0 8 4 4 9 -3 6 3 24 14 42
18 29 18 34 4 56 -14 21 -17 22 -32 9 -12 -11 -38 -15 -91 -14 -44 0 -93 -6
-118 -15 -24 -8 -45 -11 -48 -6 -3 5 -9 7 -14 4 -5 -3 -14 0 -22 7 -17 17 -78
15 -89 -3 -5 -8 -9 -9 -9 -4 0 6 -7 1 -16 -10 -8 -11 -17 -19 -19 -18 -16 8
-114 -44 -142 -75 -13 -14 -23 -22 -23 -17 0 4 -7 2 -15 -5 -17 -14 -95 -15
-104 -2 -3 4 -19 7 -34 7 -16 -1 -31 3 -33 7 -3 5 -10 6 -15 3 -5 -4 -9 -3 -9
2 0 4 -13 8 -29 8 -16 0 -27 -3 -25 -7 9 -14 -31 4 -43 19 -6 8 -16 12 -22 9
-6 -4 -19 2 -29 12 -10 10 -26 18 -35 16 -9 -1 -17 2 -17 7 0 5 -13 9 -30 9
-16 0 -30 4 -30 10 0 5 -7 7 -15 4 -8 -3 -20 -2 -27 2 -7 5 -25 9 -40 9 -15 0
-30 4 -34 8 -4 4 -22 7 -40 7 -18 0 -35 4 -38 9 -3 5 -15 7 -26 4 -11 -3 -20
-1 -20 4 0 5 -6 10 -12 11 -7 1 -35 6 -63 12 -27 6 -62 11 -77 12 -16 1 -28 5
-28 8 0 9 -30 8 -36 -1z"/>
<path d="M723 299 c-6 -6 -37 -9 -72 -7 -71 4 -83 -8 -46 -48 14 -15 25 -24
25 -20 0 10 72 -47 107 -85 15 -16 34 -29 40 -29 7 0 13 -4 13 -9 0 -5 9 -12
20 -16 23 -7 63 12 55 26 -4 5 -2 9 2 9 10 0 35 55 39 87 2 16 -6 26 -34 39
-20 10 -43 17 -49 16 -7 -2 -13 2 -13 8 0 6 -6 10 -12 9 -16 -3 -51 11 -59 23
-3 4 -10 3 -16 -3z"/>
</g>
</svg>
